<mxfile host="app.diagrams.net" modified="2023-09-26T12:16:44.558Z" agent="Mozilla/5.0 (Macintosh; Intel Mac OS X 10_15_7) AppleWebKit/537.36 (KHTML, like Gecko) Chrome/117.0.0.0 Safari/537.36" version="21.8.2" etag="xClfj28KAEjusg-zXYkz" type="github">
  <diagram name="Page-1" id="t-Bv_MT52b5awgocZL9_">
    <mxGraphModel>
      <root>
        <mxCell id="0" />
        <mxCell id="1" parent="0" />
      </root>
    </mxGraphModel>
  </diagram>
</mxfile>
